<svg xmlns="http://www.w3.org/2000/svg" version="1.1" xmlns:xlink="http://www.w3.org/1999/xlink" width="512" height="512" x="0" y="0" viewBox="0 0 512 512" style="enable-background:new 0 0 512 512" xml:space="preserve" class=""><g><path d="M430.655 81.345C384.004 34.692 321.977 9 256 9c-36.56 0-71.667 7.79-104.448 23.127-8.069-7.831-18.707-12.144-30.041-12.144-11.555 0-22.392 4.473-30.513 12.595-13.714 13.713-13.642 30.472-8.034 47.181-22.587 22.163-40.477 48.018-53.188 76.934C15.99 188.055 9 221.467 9 256c0 65.977 25.692 128.004 72.345 174.655C127.996 477.308 190.023 503 256 503s128.004-25.692 174.655-72.345C477.308 384.004 503 321.977 503 256s-25.692-128.004-72.345-174.655zM100.897 42.478c5.478-5.478 12.798-8.494 20.613-8.494s15.137 3.017 20.614 8.495c16.897 16.896 2.333 43.271-16.924 73.471-1.247 1.956-2.471 3.875-3.646 5.744a935.113 935.113 0 0 0-4.602-7.35c-19.255-30.561-32.664-55.258-16.055-71.866zM88.806 93.733c4.866 9.919 10.902 19.504 16.302 28.074 3.828 6.074 7.443 11.812 10.261 16.965a7 7 0 0 0 12.284.001c2.413-4.413 5.784-9.7 9.354-15.297 8.519-13.36 18.174-28.503 23.188-43.924 4.504-13.854 4.375-25.853-.31-35.86C190.107 29.965 222.401 23 256 23c24.46 0 48.048 3.798 70.215 10.82 9.384 31.384 10.324 54.151 2.78 67.697-7.023 12.612-21.022 16.211-33.374 19.387-2.939.755-5.716 1.469-8.356 2.285-6.679 2.065-13.915 5.159-16.938 12.44-2.562 6.17-1.387 13.553 3.698 23.235 4.9 9.328 17.976 18.547 31.819 28.308 7.122 5.021 14.486 10.214 20.029 15.019 3.84 3.329 5.774 6.706 5.174 9.034-.553 2.146-3.848 5.214-11.313 6.803-1.859.396-7.768.684-14.022.988-9.666.472-22.443 1.096-34.931 2.658-1.868-3.847-4.396-7.405-7.634-10.643-8.122-8.123-18.959-12.596-30.514-12.596s-22.392 4.473-30.514 12.595c-25.835 25.834-2.746 62.477 14.113 89.232 3.827 6.074 7.441 11.811 10.259 16.963a7.002 7.002 0 0 0 12.284 0c2.413-4.414 5.784-9.701 9.354-15.299a937.182 937.182 0 0 0 5.596-8.855c15.451 17.032 23.614 32.763 22.074 42.984-.791 5.253-4.227 9.424-10.503 12.752-25.164 13.339-40.844-1.276-53.568-16.023-5.449-6.316-11.79-18.604-18.504-31.612-13.172-25.522-28.101-54.449-47.679-62.08-1.626-.634-3.414-1.103-5.484-1.646-13.023-3.413-37.265-9.767-40.297-71.724-.539-11.025-15.674-41.545-26.172-54.757a236.898 236.898 0 0 1 15.214-17.232zM236.323 294.4c-1.247 1.956-2.471 3.875-3.646 5.746a976.552 976.552 0 0 0-4.6-7.348c-19.258-30.562-32.668-55.26-16.059-71.868 5.478-5.479 12.799-8.495 20.614-8.495s15.136 3.017 20.613 8.495c16.899 16.897 2.334 43.27-16.922 73.47zm-72.418 162.84c4.374 2.219 8.193 4.168 8.045 16.068-29.048-11.274-55.292-28.208-77.372-49.448a480.167 480.167 0 0 0 6.157-1.626c11.945-3.214 26.818-7.213 37.836-5.446 7.468 1.198 15.928 5.169 15.062 25.409-.41 9.621 6.276 13.015 10.272 15.043zm21.868 20.937c.003-.231.013-.502.034-.85 1.346-22.08-7.329-28.39-15.566-32.57-.914-.464-2.131-1.082-2.614-1.466a3.642 3.642 0 0 1-.007-.495c1.248-29.162-13.901-37.756-26.829-39.83-13.984-2.243-30.457 2.188-43.692 5.75-5.431 1.461-11.035 2.967-14.05 3.245C45.746 370.633 23 315.925 23 256c0-48.668 14.661-94.751 41.941-133.533 7.842 11.26 20.456 36.102 20.839 43.94 1.514 30.944 8.209 52.893 20.468 67.099 10.652 12.344 22.928 15.562 30.262 17.483 1.582.415 3.076.807 3.949 1.147 14.649 5.709 28.885 33.293 40.323 55.456 7.412 14.363 13.814 26.769 20.345 34.338 4.94 5.726 13.21 15.311 24.818 21.096 6.683 3.331 13.563 4.996 20.603 4.996 8.241 0 16.699-2.283 25.304-6.845 10.327-5.476 16.312-13.226 17.79-23.036 2.921-19.391-13.055-41.406-28.477-57.638 4.053-7.311 7.67-14.87 10.151-22.499 2.672-8.22 3.704-15.782 3.137-22.671 11.368-1.329 23.016-1.899 31.941-2.334 8.732-.426 13.421-.676 16.253-1.278 11.817-2.515 19.82-8.712 21.957-17.002 1.166-4.523 1.475-13.541-9.561-23.106-6.073-5.264-13.729-10.662-21.133-15.882-11.325-7.985-24.161-17.036-27.491-23.376-4.083-7.774-3.454-10.657-3.164-11.356.605-1.458 3.347-2.95 8.146-4.435 2.317-.717 4.934-1.39 7.705-2.102 13.577-3.49 32.172-8.271 42.12-26.134 8.673-15.573 9.064-38.138 1.142-68.724 71.821 28.768 126.106 92.292 141.921 169.663-26.455-.242-43.517 4.197-53.32 13.781-8.563 8.372-10.589 19.286-11.187 30.943a42.879 42.879 0 0 0-20.749 11.499c-15.753 15.752-13.315 35.524-5.192 54.622a83.91 83.91 0 0 1-1.437.909c-19.509 12.026-12.907 31.113-7.081 47.952 5.142 14.864 10.97 31.713 4.227 49.118-3.113 8.038-5.393 16.72 2.159 27.194C353.466 472.782 306.594 489 256 489c-24.464 0-48.056-3.8-70.227-10.823zm223.161-202.786c5.683-5.684 13.148-8.525 20.613-8.525 7.466 0 14.932 2.842 20.614 8.525 16.897 16.896 2.333 43.27-16.923 73.47-1.247 1.956-2.471 3.875-3.646 5.745a965.294 965.294 0 0 0-4.601-7.348c-19.257-30.562-32.667-55.26-16.057-71.867zm-6.116 161.389c-3.359-4.792-2.39-8.01-.213-13.631 8.597-22.19 1.584-42.463-4.051-58.753-6.489-18.757-7.944-25.822 1.197-31.458.086-.053.17-.109.257-.162 4.18 7.726 8.859 15.155 13.138 21.946 3.827 6.074 7.442 11.812 10.26 16.965a7 7 0 0 0 12.284 0c2.413-4.414 5.784-9.701 9.354-15.299 8.519-13.359 18.174-28.502 23.188-43.923 6.317-19.431 3.569-35.234-8.169-46.974-7.32-7.32-16.638-11.451-26.214-12.402.529-8.376 1.996-15.226 6.909-20.029 7.212-7.05 22.276-10.252 45.938-9.755A233.992 233.992 0 0 1 489 256c0 72.869-33.633 138.022-86.182 180.78zM140.572 60.911c0-10.544-8.579-19.123-19.123-19.123s-19.123 8.579-19.123 19.123 8.579 19.123 19.123 19.123 19.123-8.579 19.123-19.123zm-24.246 0c0-2.825 2.298-5.123 5.123-5.123s5.123 2.298 5.123 5.123-2.298 5.123-5.123 5.123-5.123-2.298-5.123-5.123zm332.282 232.912c0-10.544-8.578-19.123-19.122-19.123s-19.123 8.579-19.123 19.123 8.579 19.123 19.123 19.123 19.122-8.579 19.122-19.123zm-24.245 0a5.129 5.129 0 0 1 5.123-5.123c2.824 0 5.122 2.298 5.122 5.123s-2.298 5.123-5.122 5.123a5.129 5.129 0 0 1-5.123-5.123zm-191.792-73.582c-10.544 0-19.123 8.578-19.123 19.122s8.579 19.123 19.123 19.123 19.123-8.579 19.123-19.123-8.579-19.122-19.123-19.122zm0 24.245a5.129 5.129 0 0 1-5.123-5.123c0-2.824 2.298-5.122 5.123-5.122s5.123 2.298 5.123 5.122a5.129 5.129 0 0 1-5.123 5.123z" fill="#fff" opacity="1" data-original="#fff" class=""></path></g></svg>

