<svg xmlns="http://www.w3.org/2000/svg" version="1.1" xmlns:xlink="http://www.w3.org/1999/xlink" width="512" height="512" x="0" y="0" viewBox="0 0 64 64" style="enable-background:new 0 0 512 512" xml:space="preserve" class=""><g><path d="M2 63h16a1 1 0 0 0 1-1V48a4.99 4.99 0 0 0-4.58-4.957 6 6 0 1 0-8.84 0A4.99 4.99 0 0 0 1 48v14a1 1 0 0 0 1 1zm8-28a4 4 0 1 1-4 4 4.004 4.004 0 0 1 4-4zm2 16v5H8v-5zm-3.612-6h3.225l-1.334 4h-.558zM3 48a3.003 3.003 0 0 1 3-3h.28l1.332 4H7a1 1 0 0 0-1 1v7a1 1 0 0 0 1 1h6a1 1 0 0 0 1-1v-7a1 1 0 0 0-1-1h-.612l1.333-4H14a3.003 3.003 0 0 1 3 3v13H3zM37 24H23a2.002 2.002 0 0 0-2 2v36a1 1 0 0 0 1 1h16a1 1 0 0 0 1-1V26a2.002 2.002 0 0 0-2-2zm0 37H23V26h14z" fill="#fff" opacity="1" data-original="#fff"></path><path d="M25 39h10a1 1 0 0 0 1-1v-8a1 1 0 0 0-1-1H25a1 1 0 0 0-1 1v8a1 1 0 0 0 1 1zm1-8h8v6h-8zM34 42h-8a1 1 0 0 0-1 1v4a1 1 0 0 0 1 1h8a1 1 0 0 0 1-1v-4a1 1 0 0 0-1-1zm-1 4h-6v-2h6zM25 51h10v2H25zM25 56h10v2H25zM60.313 50.24a4 4 0 1 0-6.626 0A3.985 3.985 0 0 0 52 51.381a3.985 3.985 0 0 0-1.687-1.143 4 4 0 1 0-6.626 0A3.993 3.993 0 0 0 41 54v8a1 1 0 0 0 1 1h20a1 1 0 0 0 1-1v-8a3.993 3.993 0 0 0-2.687-3.76zM47 46a2 2 0 1 1-2 2 2.002 2.002 0 0 1 2-2zm4 15h-8v-7a2.002 2.002 0 0 1 2-2h4a2.002 2.002 0 0 1 2 2zm6-15a2 2 0 1 1-2 2 2.002 2.002 0 0 1 2-2zm4 15h-8v-7a2.002 2.002 0 0 1 2-2h4a2.002 2.002 0 0 1 2 2zM11.99 9.678l.525-1.93 7.78 2.12-.526 1.93zM7.753 12.52l1.93-.525 2.12 7.78-1.93.525zM2.822 4.236a3.495 3.495 0 0 0 .592 4.128L5.89 10.84a1 1 0 0 0 1.414 0l3.536-3.536a1 1 0 0 0 0-1.414L8.364 3.414a3.588 3.588 0 0 0-4.12-.583L2.708 1.293 1.293 2.707zm2.006.592a1.5 1.5 0 0 1 2.122 0l1.768 1.768-2.122 2.122L4.83 6.95a1.503 1.503 0 0 1 0-2.122zM43.716 9.883l7.78-2.12.525 1.93-7.78 2.12zM52.214 19.767l2.12-7.78 1.93.526-2.12 7.78zM61.293 1.293l-1.538 1.538a3.587 3.587 0 0 0-4.119.583L53.161 5.89a1 1 0 0 0 0 1.414l3.536 3.536a1 1 0 0 0 1.414 0l2.475-2.475a3.495 3.495 0 0 0 .591-4.127l1.53-1.53zM59.172 6.95l-1.768 1.768-2.122-2.122 1.769-1.768a1.536 1.536 0 0 1 2.12 0 1.503 1.503 0 0 1 0 2.122zM10.327 11.697l1.437-1.393 5.895 6.082-1.437 1.392zM46.47 16.504l5.895-6.081 1.435 1.39-5.895 6.082z" fill="#fff" opacity="1" data-original="#fff"></path></g></svg>