<svg xmlns="http://www.w3.org/2000/svg" version="1.1" xmlns:xlink="http://www.w3.org/1999/xlink" width="512" height="512" x="0" y="0" viewBox="0 0 24 24" style="enable-background:new 0 0 512 512" xml:space="preserve" class=""><g><path d="M16 6.25h1.847a8.23 8.23 0 1 0-5.873 14 8.133 8.133 0 0 0 7.352-4.58.75.75 0 0 1 1.348.66 9.626 9.626 0 0 1-8.7 5.42A9.75 9.75 0 1 1 19.25 5.544V3a.75.75 0 0 1 1.5 0v4a.75.75 0 0 1-.75.75h-4a.75.75 0 0 1 0-1.5zm-4 1a.75.75 0 0 0-.75.75v4a.747.747 0 0 0 .22.53l2 2a.75.75 0 0 0 1.06-1.06l-1.78-1.781V8a.75.75 0 0 0-.75-.75z" fill="#fff" opacity="1" data-original="#fff" class=""></path></g></svg>