<svg xmlns="http://www.w3.org/2000/svg" version="1.1" xmlns:xlink="http://www.w3.org/1999/xlink" width="512" height="512" x="0" y="0" viewBox="0 0 433.875 433.875" style="enable-background:new 0 0 512 512" xml:space="preserve" class=""><g><path d="M53.577 284.604c-33.258-80.292-2.76-171.358 68.054-216.621v66.125h40V15.113H42.636v40h29.849c-24.058 21.442-43.167 48.2-55.863 78.852-22.163 53.506-22.163 112.44 0 165.947 14.501 35.008 37.946 65.673 67.801 88.681 28.94 22.301 63.328 37.052 99.447 42.657l6.134-39.527c-61.602-9.56-112.603-49.605-136.427-107.119zM417.253 299.911c22.163-53.506 22.163-112.441 0-165.947-14.501-35.008-37.946-65.673-67.802-88.68-28.939-22.302-63.328-37.053-99.447-42.658l-6.134 39.527c61.604 9.559 112.604 49.604 136.428 107.118 18.074 43.635 18.074 91.697 0 135.332-14.05 33.919-37.717 62.002-68.054 81.318v-66.155h-40v118.995H391.24v-40h-29.85c24.058-21.44 43.167-48.198 55.863-78.85z" style="" fill="#fff" data-original="#fff" class=""></path></g></svg>