<svg xmlns="http://www.w3.org/2000/svg" version="1.1" xmlns:xlink="http://www.w3.org/1999/xlink" width="512" height="512" x="0" y="0" viewBox="0 0 512 512" style="enable-background:new 0 0 512 512" xml:space="preserve" class=""><g><path d="M512 256c0 68.38-26.628 132.668-74.98 181.02S324.38 512 256 512c-68.523 0-132.884-26.702-181.227-75.188C26.555 388.451 0 324.237 0 256c0-5.522 4.477-10 10-10s10 4.478 10 10c0 130.131 105.869 236 236 236s236-105.869 236-236S386.131 20 256 20c-75.749 0-144.954 35.142-189.375 95.083l24.172-7.772c5.26-1.685 10.891 1.201 12.581 6.46 1.69 5.258-1.201 10.89-6.459 12.581L45.822 142.78a9.997 9.997 0 0 1-12.836-7.411L21.665 82.903c-1.165-5.398 2.267-10.72 7.666-11.885 5.402-1.165 10.72 2.269 11.884 7.666l6.223 28.838c21.249-29.781 48.768-54.869 80.497-73.234C166.688 11.856 210.973 0 256 0c68.38 0 132.667 26.629 181.02 74.98C485.372 123.333 512 187.62 512 256zm-255.996-19.161c66.65 0 120.874 54.224 120.874 120.874 0 13.075-7.147 31.293-41.194 43.828-21.188 7.802-49.487 12.098-79.684 12.098s-58.496-4.296-79.684-12.098c-34.047-12.535-41.194-30.753-41.194-43.828 0-66.65 54.228-120.874 120.882-120.874zM155.122 357.713c0 20.146 44.311 35.926 100.878 35.926s100.878-15.78 100.878-35.926c0-55.622-45.252-100.874-100.874-100.874-55.627 0-100.882 45.252-100.882 100.874zm100.882-136.866c-33.771 0-61.246-27.475-61.246-61.246 0-33.767 27.475-61.238 61.246-61.238s61.246 27.472 61.246 61.238c0 33.771-27.475 61.246-61.246 61.246zm0-20c22.743 0 41.246-18.503 41.246-41.246 0-22.739-18.503-41.238-41.246-41.238s-41.246 18.499-41.246 41.238c0 22.743 18.503 41.246 41.246 41.246z" fill="#fff" opacity="1" data-original="#fff"></path></g></svg>